<?xml version="1.0" encoding="UTF-8" standalone="no"?>
<svg
   xmlns:dc="http://purl.org/dc/elements/1.1/"
   xmlns:cc="http://creativecommons.org/ns#"
   xmlns:rdf="http://www.w3.org/1999/02/22-rdf-syntax-ns#"
   xmlns:svg="http://www.w3.org/2000/svg"
   xmlns="http://www.w3.org/2000/svg"
   xmlns:sodipodi="http://sodipodi.sourceforge.net/DTD/sodipodi-0.dtd"
   xmlns:inkscape="http://www.inkscape.org/namespaces/inkscape"
   width="512"
   height="512"
   viewBox="0 0 135.46666 135.46667"
   version="1.1"
   id="svg8"
   inkscape:version="1.0.1 (3bc2e813f5, 2020-09-07)"
   sodipodi:docname="logo_DAGERTEC.svg">
  <defs
     id="defs2" />
  <sodipodi:namedview
     id="base"
     pagecolor="#ffffff"
     bordercolor="#666666"
     borderopacity="1.0"
     inkscape:pageopacity="0.0"
     inkscape:pageshadow="2"
     inkscape:zoom="0.87"
     inkscape:cx="400"
     inkscape:cy="296.84211"
     inkscape:document-units="mm"
     inkscape:current-layer="layer1"
     inkscape:document-rotation="0"
     showgrid="false"
     units="px"
     inkscape:window-width="1440"
     inkscape:window-height="837"
     inkscape:window-x="1432"
     inkscape:window-y="-8"
     inkscape:window-maximized="1" />
  <metadata
     id="metadata5">
    <rdf:RDF>
      <cc:Work
         rdf:about="">
        <dc:format>image/svg+xml</dc:format>
        <dc:type
           rdf:resource="http://purl.org/dc/dcmitype/StillImage" />
        <dc:title />
      </cc:Work>
    </rdf:RDF>
  </metadata>
  <g
     inkscape:label="Capa 1"
     inkscape:groupmode="layer"
     id="layer1">
    <path
       style="fill:#000000;stroke-width:0.14389"
       d="M 65.646931,132.59215 C 60.008972,132.26657 55.089553,130.70057 50.552416,127.78706 41.923367,122.24596 27.335193,108.62361 14.336128,93.968517 8.9843091,87.934896 4.2304048,81.770797 2.6869043,78.863678 -0.21716653,73.393976 -0.68924654,65.63 1.4973562,59.300025 2.4124534,56.650923 3.7530955,54.465141 7.1446163,50.092735 18.780103,35.092071 39.834544,14.498526 50.579693,7.6084854 c 5.109403,-3.2762706 10.570395,-4.806437 17.153639,-4.806437 6.60238,0 12.042825,1.5289156 17.180916,4.8283161 8.629061,5.5410965 23.217232,19.1634405 36.216282,33.8185395 5.35182,6.033621 10.10572,12.197719 11.64922,15.104839 2.90408,5.469702 3.37616,13.233678 1.18956,19.563652 -0.9151,2.649103 -2.25573,4.834885 -5.64726,9.207291 -11.67451,15.050974 -32.615812,35.526394 -43.465891,42.498884 -4.322492,2.77773 -9.445407,4.44697 -14.46088,4.71184 -0.79138,0.0418 -1.762633,0.0961 -2.15834,0.12033 -0.39569,0.0244 -1.561194,-0.003 -2.590008,-0.0636 z M 80.971147,99.744966 c 0.830961,-0.138286 2.258422,-0.439121 3.172132,-0.668514 5.614692,-1.409616 10.849637,-4.541046 15.113701,-9.04069 5.185,-5.471452 8.02632,-11.574244 8.77841,-18.854913 0.24617,-2.382919 0.0967,-6.960363 -0.30125,-9.227713 C 106.64253,55.733918 103.93162,50.432398 99.401317,45.65723 93.701107,39.648916 86.924291,36.239809 79.183514,35.486559 78.14107,35.385116 69.127943,35.333605 52.42057,35.333605 H 27.229436 l 8.098575,8.099527 8.098576,8.099528 -0.07974,22.872655 c -0.04386,12.579961 -0.112708,23.477566 -0.153004,24.216901 -0.0542,0.994311 -0.02914,1.329543 0.09618,1.287768 0.09318,-0.03107 3.857799,-3.808733 8.365804,-8.394824 l 8.196357,-8.338347 -0.09228,-15.791855 -0.09228,-15.791856 8.673315,5.74e-4 c 9.40615,5.77e-4 10.233337,0.05406 12.472352,0.805678 4.800676,1.611533 8.892668,5.789959 10.412973,10.632948 0.814561,2.594803 0.888794,6.052006 0.188472,8.77725 -1.361284,5.297365 -5.777384,9.839492 -11.035186,11.350116 -1.971857,0.566538 -3.165674,0.664648 -8.087591,0.664648 h -4.629537 l -8.022313,8.021349 c -4.412277,4.411743 -8.022314,8.073119 -8.022314,8.136396 0,0.06327 6.264591,0.09238 13.921296,0.0647 12.425616,-0.0449 14.083612,-0.07736 15.432133,-0.301786 z m -5.762021,-28.798745 5.080173,-4.604459 -2.313793,-0.07194 -2.313791,-0.07194 1.372874,-2.564867 c 0.755062,-1.410676 1.337882,-2.599852 1.295106,-2.642613 -0.04283,-0.04275 -1.333225,-0.111808 -2.86772,-0.153446 -2.300417,-0.06242 -2.804279,-0.04057 -2.87151,0.124555 -0.572692,1.406412 -3.130512,7.9669 -3.130665,8.029769 -1.02e-4,0.04641 0.809276,0.06293 1.798628,0.03669 0.989336,-0.02624 1.798815,-0.0052 1.798815,0.04667 0,0.05192 -0.788116,1.622655 -1.751382,3.490545 -1.065337,2.065841 -1.638877,3.315735 -1.464154,3.190838 0.158053,-0.112931 2.573302,-2.277336 5.367419,-4.809788 z"
       id="path51" />
  </g>
</svg>
